<?xml version="1.0" encoding="UTF-8"?>
<svg id="Layer_1" xmlns="http://www.w3.org/2000/svg" version="1.1" viewBox="0 0 120 120">
  <!-- Generator: Adobe Illustrator 30.1.0, SVG Export Plug-In . SVG Version: 2.1.1 Build 136)  -->
  <defs>
    <style>
      .st0 {
        fill: #a8c5d7;
      }

      .st1 {
        fill: #c7d9e9;
      }

      .st2 {
        fill: #fefefe;
      }

      .st3 {
        fill: none;
        stroke: #fff;
        stroke-miterlimit: 10;
        stroke-width: 2.03px;
      }
    </style>
  </defs>
  <path class="st2" d="M32.54,60.4c-.67-.22-1.34-.45-2.01-.67-.99-.32-1.5-1.26-1.14-2.12.21-.5.65-.78,1.1-1.03.77-.44,1.59-.77,2.4-1.11,2.6-1.09,5.22-2.11,7.85-3.11,4.23-1.6,8.46-3.2,12.69-4.78,4.96-1.84,9.92-3.66,14.88-5.47,4.73-1.73,9.46-3.43,14.19-5.15.59-.21,1.2-.37,1.84-.37.97,0,1.47.45,1.59,1.41.11.92-.01,1.82-.15,2.72-.49,3.26-1.22,6.47-1.94,9.69-.72,3.21-1.46,6.4-2.2,9.61-.02.08-.03.15-.04.23-.01.06-.02.12-.04.19-.16.5-.26,1.01-.36,1.53-.03.1-.05.19-.08.29-.07.24-.14.47-.15.71-.29.89-.47,1.8-.68,2.71-.37,1.61-.76,3.22-1.15,4.83-.84,3.46-1.69,6.92-2.53,10.37-.04.15-.07.31-.13.45-.79,2.16-3,2.73-4.81,1.2-1.58-1.34-3.25-2.56-4.92-3.78-2.06-1.49-4.14-2.95-6.23-4.39-.1-.07-.18-.16-.31-.16-.04-.11-.14-.16-.23-.22-2.56-1.77-5.13-3.51-7.71-5.25-.31-.21-.68-.37-.9-.7-.04-.31.08-.54.31-.75,2.27-2.03,4.53-4.05,6.78-6.09,1.89-1.71,3.77-3.44,5.64-5.17,1.68-1.55,3.34-3.11,4.99-4.7,1.64-1.58,3.28-3.16,4.8-4.85.37-.41.75-.83,1.04-1.31.07-.12.16-.25.05-.37s-.25-.06-.38,0c-.08.04-.16.07-.24.12-.51.29-1.02.58-1.53.88-2.77,1.63-5.49,3.32-8.21,5.01-3.26,2.02-6.51,4.06-9.76,6.09-3.13,1.96-6.26,3.95-9.4,5.9-.69.43-1.3,1.02-2.17,1.12-.47-.15-.94-.32-1.41-.46-.56-.17-1.09-.45-1.67-.56-.14-.08-.29-.12-.45-.15-.1-.03-.19-.07-.29-.1-.15-.07-.31-.13-.48-.14-.05-.04-.11-.06-.18-.06-.46-.19-.93-.34-1.41-.46-.08-.03-.16-.05-.23-.08-.2-.11-.43-.16-.65-.21-.08-.02-.16-.05-.23-.07-.4-.18-.82-.3-1.24-.41-.08-.03-.15-.05-.23-.08-.74-.27-1.48-.51-2.24-.73h-.02s-.02,0-.02,0Z"/>
  <path class="st1" d="M43.3,63.93c.86-.1,1.48-.69,2.17-1.12,3.14-1.95,6.26-3.94,9.4-5.9,3.25-2.04,6.5-4.07,9.76-6.09,2.73-1.69,5.45-3.39,8.21-5.01.51-.3,1.02-.59,1.53-.88l.24-.12c.13-.06.27-.12.38,0,.12.13.02.26-.05.37-.29.48-.67.9-1.04,1.31-1.53,1.69-3.17,3.27-4.8,4.85-1.65,1.58-3.32,3.15-4.99,4.7-1.87,1.73-3.75,3.46-5.64,5.17-2.25,2.04-4.52,4.07-6.78,6.09-.23.21-.35.44-.31.75-.13.44-.12.89-.17,1.34-.1.98-.19,1.97-.28,2.95-.1,1.09-.21,2.18-.31,3.27-.11,1.16-.23,2.32-.33,3.48-.07.9-.28,1.81.03,2.71-.47-.4-.82-.9-1.03-1.48-.88-2.39-1.74-4.79-2.61-7.19-.9-2.49-1.8-4.98-2.7-7.47-.22-.58-.46-1.16-.68-1.73h0Z"/>
  <path class="st0" d="M50.31,81.8c-.31-.9-.1-1.81-.03-2.71.09-1.16.22-2.32.33-3.48.1-1.09.21-2.18.31-3.27.09-.98.18-1.97.28-2.95.05-.45.04-.9.17-1.34.22.33.58.49.9.7,2.58,1.73,5.15,3.48,7.71,5.25.09.06.19.1.23.22-.27.34-.63.58-.95.86-2.02,1.75-3.98,3.56-5.88,5.45-.4.4-.83.78-1.3,1.1-.22.15-.45.27-.7.37-.41.17-.76.11-1.07-.2Z"/>
  <path class="st3" d="M60,114.52h0c-30.11,0-54.52-24.41-54.52-54.52h0C5.48,29.89,29.89,5.48,60,5.48h0c30.11,0,54.52,24.41,54.52,54.52h0c0,30.11-24.41,54.52-54.52,54.52Z"/>
</svg>