<?xml version="1.0" encoding="UTF-8"?>
<svg id="Layer_1" xmlns="http://www.w3.org/2000/svg" version="1.1" viewBox="0 0 120 120">
  <!-- Generator: Adobe Illustrator 30.1.0, SVG Export Plug-In . SVG Version: 2.1.1 Build 136)  -->
  <defs>
    <style>
      .st0 {
        fill: #fff;
      }

      .st1 {
        fill: none;
        stroke: #fff;
        stroke-miterlimit: 10;
        stroke-width: 2.03px;
      }
    </style>
  </defs>
  <path class="st1" d="M60,114.52h0c-30.11,0-54.52-24.41-54.52-54.52h0C5.48,29.89,29.89,5.48,60,5.48h0c30.11,0,54.52,24.41,54.52,54.52h0c0,30.11-24.41,54.52-54.52,54.52Z"/>
  <g>
    <path class="st0" d="M28.89,91.25c.18-.67.36-1.31.53-1.95,1.32-4.84,2.65-9.67,3.97-14.51.04-.16.04-.29-.05-.44-2.15-3.79-3.47-7.85-3.98-12.18-1.48-12.58,4.65-24.96,15.57-31.44,3.85-2.28,7.99-3.73,12.44-4.28,14.4-1.76,27.19,5.98,33.01,17.88,2.38,4.86,3.42,10.02,3.21,15.42-.58,14.48-10.86,26.9-24.99,30.1-7.81,1.77-15.29.74-22.39-2.98-.17-.09-.32-.1-.51-.05-5.53,1.45-11.06,2.9-16.58,4.35-.06.05-.12.06-.23.08ZM36.63,83.59c.12-.03.18-.04.25-.06,3.16-.83,6.33-1.66,9.49-2.49.28-.07.5-.08.74.1.16.12.35.21.52.31,6.45,3.76,13.31,4.78,20.54,2.92,13.95-3.58,22.58-17.86,19.34-31.91-3.31-14.37-17.61-23.38-31.99-20.15-15.41,3.47-24.52,19.52-19.59,34.52.78,2.38,1.9,4.6,3.28,6.69.09.14.11.26.06.41-.71,2.58-1.42,5.17-2.12,7.75-.17.63-.34,1.25-.52,1.91Z"/>
    <path class="st0" d="M50.88,43.6h.98c.39,0,.73.15.95.47.21.31.4.63.55.97.79,1.87,1.51,3.76,2.35,5.6.38.84.37,1.54-.1,2.31-.48.77-1.07,1.45-1.69,2.11-.73.79-.78,1.06-.22,1.98,1.97,3.25,4.5,5.95,7.82,7.83,1.05.59,2.16,1.08,3.26,1.58.62.28,1.04.17,1.47-.36.87-1.06,1.73-2.13,2.58-3.2.38-.48.74-.65,1.32-.46.54.18,1.06.4,1.58.64,1.7.81,3.38,1.67,5.09,2.45.73.33,1,.82.94,1.6-.08,1-.27,1.97-.63,2.91-.2.54-.55.98-.97,1.36-1.31,1.21-2.79,2.1-4.57,2.4-1.87.32-3.7.11-5.5-.51-2.29-.79-4.55-1.62-6.64-2.86-2.84-1.68-5.3-3.83-7.52-6.26-1.87-2.06-3.56-4.25-4.98-6.65-.87-1.47-1.53-3.04-1.79-4.74-.44-2.82.17-5.37,2.07-7.56.22-.26.46-.51.7-.76.6-.61,1.33-.94,2.2-.92.26,0,.51,0,.77,0-.02.05-.02.06-.02.07Z"/>
  </g>
</svg>